# xmcd
#
# Track frame offsets:
#	150
#	14411
#	33163
#	48532
#	71806
#	86740
#	100283
#	120170
#	132303
#	146556
#	162785
#
# Disc length: 2280 seconds
#
# Revision: 2
# Processed by: cddbd v1.4PL0 Copyright (c) Steve Scherf et al.
# Submitted via: audiograbber 1.81.02
#
DISCID=9108e60b
DTITLE=Mike Bloomfield - It's Not Killing Me
DYEAR=1969
DGENRE=Blues
TTITLE0=If You See Me
TTITLE1=For Anyone You Meet
TTITLE2=Good Old Guy
TTITLE3=Far Too Many Nights
TTITLE4=It's Not Killing Me
TTITLE5=Next Time You See Me
TTITLE6=Michael's Lament
TTITLE7=Why Must My Baby
TTITLE8=The Ones I Loved Are Gone
TTITLE9=Don't Think About It, Baby
TTITLE10=Goofers
EXTD=
EXTT0=
EXTT1=
EXTT2=
EXTT3=
EXTT4=
EXTT5=
EXTT6=
EXTT7=
EXTT8=
EXTT9=
EXTT10=
PLAYORDER=
